<?xml version="1.0" encoding="UTF-8"?>
<svg width="18px" height="18px" viewBox="0 0 18 18" version="1.1" xmlns="http://www.w3.org/2000/svg" xmlns:xlink="http://www.w3.org/1999/xlink">
    <!-- Generator: Sketch 52.6 (67491) - http://www.bohemiancoding.com/sketch -->
    <title>ic/assignment_24px</title>
    <desc>Created with Sketch.</desc>
    <g id="ic/assignment_24px" stroke="none" stroke-width="1" fill="none" fill-rule="evenodd">
        <path d="M14.25,2.25 L11.115,2.25 C10.8,1.38 9.975,0.75 9,0.75 C8.025,0.75 7.2,1.38 6.885,2.25 L3.75,2.25 C2.925,2.25 2.25,2.925 2.25,3.75 L2.25,14.25 C2.25,15.075 2.925,15.75 3.75,15.75 L14.25,15.75 C15.075,15.75 15.75,15.075 15.75,14.25 L15.75,3.75 C15.75,2.925 15.075,2.25 14.25,2.25 Z M9,2.25 C9.4125,2.25 9.75,2.5875 9.75,3 C9.75,3.4125 9.4125,3.75 9,3.75 C8.5875,3.75 8.25,3.4125 8.25,3 C8.25,2.5875 8.5875,2.25 9,2.25 Z M10.5,12.75 L5.25,12.75 L5.25,11.25 L10.5,11.25 L10.5,12.75 Z M12.75,9.75 L5.25,9.75 L5.25,8.25 L12.75,8.25 L12.75,9.75 Z M12.75,6.75 L5.25,6.75 L5.25,5.25 L12.75,5.25 L12.75,6.75 Z" id="Shape" fill="#999999"></path>
    </g>
</svg>