<?xml version="1.0" encoding="UTF-8"?>
<svg width="24px" height="25px" viewBox="0 0 24 25" version="1.1" xmlns="http://www.w3.org/2000/svg" xmlns:xlink="http://www.w3.org/1999/xlink">
    <!-- Generator: Sketch 52.6 (67491) - http://www.bohemiancoding.com/sketch -->
    <title>ic/fingerprint_24px</title>
    <desc>Created with Sketch.</desc>
    <g id="ic/fingerprint_24px" stroke="none" stroke-width="1" fill="none" fill-rule="evenodd">
        <path d="M17.81,4.97 C17.73,4.97 17.65,4.95 17.58,4.91 C15.66,3.92 14,3.5 12.01,3.5 C10.03,3.5 8.15,3.97 6.44,4.91 C6.2,5.04 5.9,4.95 5.76,4.71 C5.63,4.47 5.72,4.16 5.96,4.03 C7.82,3.02 9.86,2.5 12.01,2.5 C14.14,2.5 16,2.97 18.04,4.02 C18.29,4.15 18.38,4.45 18.25,4.69 C18.16,4.87 17.99,4.97 17.81,4.97 Z M3.5,10.22 C3.4,10.22 3.3,10.19 3.21,10.13 C2.98,9.97 2.93,9.66 3.09,9.43 C4.08,8.03 5.34,6.93 6.84,6.16 C9.98,4.54 14,4.53 17.15,6.15 C18.65,6.92 19.91,8.01 20.9,9.4 C21.06,9.62 21.01,9.94 20.78,10.1 C20.55,10.26 20.24,10.21 20.08,9.98 C19.18,8.72 18.04,7.73 16.69,7.04 C13.82,5.57 10.15,5.57 7.29,7.05 C5.93,7.75 4.79,8.75 3.89,10.01 C3.81,10.15 3.66,10.22 3.5,10.22 Z M9.75,22.29 C9.62,22.29 9.49,22.24 9.4,22.14 C8.53,21.27 8.06,20.71 7.39,19.5 C6.7,18.27 6.34,16.77 6.34,15.16 C6.34,12.19 8.88,9.77 12,9.77 C15.12,9.77 17.66,12.19 17.66,15.16 C17.66,15.44 17.44,15.66 17.16,15.66 C16.88,15.66 16.66,15.44 16.66,15.16 C16.66,12.74 14.57,10.77 12,10.77 C9.43,10.77 7.34,12.74 7.34,15.16 C7.34,16.6 7.66,17.93 8.27,19.01 C8.91,20.16 9.35,20.65 10.12,21.43 C10.31,21.63 10.31,21.94 10.12,22.14 C10.01,22.24 9.88,22.29 9.75,22.29 Z M16.92,20.44 C15.73,20.44 14.68,20.14 13.82,19.55 C12.33,18.54 11.44,16.9 11.44,15.16 C11.44,14.88 11.66,14.66 11.94,14.66 C12.22,14.66 12.44,14.88 12.44,15.16 C12.44,16.57 13.16,17.9 14.38,18.72 C15.09,19.2 15.92,19.43 16.92,19.43 C17.16,19.43 17.56,19.4 17.96,19.33 C18.23,19.28 18.49,19.46 18.54,19.74 C18.59,20.01 18.41,20.27 18.13,20.32 C17.56,20.43 17.06,20.44 16.92,20.44 Z M14.91,22.5 C14.87,22.5 14.82,22.49 14.78,22.48 C13.19,22.04 12.15,21.45 11.06,20.38 C9.66,18.99 8.89,17.14 8.89,15.16 C8.89,13.54 10.27,12.22 11.97,12.22 C13.67,12.22 15.05,13.54 15.05,15.16 C15.05,16.23 15.98,17.1 17.13,17.1 C18.28,17.1 19.21,16.23 19.21,15.16 C19.21,11.39 15.96,8.33 11.96,8.33 C9.12,8.33 6.52,9.91 5.35,12.36 C4.96,13.17 4.76,14.12 4.76,15.16 C4.76,15.94 4.83,17.17 5.43,18.77 C5.53,19.03 5.4,19.32 5.14,19.41 C4.88,19.51 4.59,19.37 4.5,19.12 C4.01,17.81 3.77,16.51 3.77,15.16 C3.77,13.96 4,12.87 4.45,11.92 C5.78,9.13 8.73,7.32 11.96,7.32 C16.51,7.32 20.21,10.83 20.21,15.15 C20.21,16.77 18.83,18.09 17.13,18.09 C15.43,18.09 14.05,16.77 14.05,15.15 C14.05,14.08 13.12,13.21 11.97,13.21 C10.82,13.21 9.89,14.08 9.89,15.15 C9.89,16.86 10.55,18.46 11.76,19.66 C12.71,20.6 13.62,21.12 15.03,21.51 C15.3,21.58 15.45,21.86 15.38,22.12 C15.33,22.35 15.12,22.5 14.91,22.5 Z" id="Shape" fill="#FFFFFF"></path>
    </g>
</svg>