<?xml version="1.0" encoding="UTF-8"?>
<svg width="48px" height="48px" viewBox="0 0 48 48" version="1.1" xmlns="http://www.w3.org/2000/svg" xmlns:xlink="http://www.w3.org/1999/xlink">
    <!-- Generator: Sketch 52.6 (67491) - http://www.bohemiancoding.com/sketch -->
    <title>ic/info_outline</title>
    <desc>Created with Sketch.</desc>
    <defs>
        <path d="M22,34 L26,34 L26,22 L22,22 L22,34 Z M24,4 C12.95,4 4,12.95 4,24 C4,35.05 12.95,44 24,44 C35.05,44 44,35.05 44,24 C44,12.95 35.05,4 24,4 Z M24,40 C15.18,40 8,32.82 8,24 C8,15.18 15.18,8 24,8 C32.82,8 40,15.18 40,24 C40,32.82 32.82,40 24,40 Z M22,18 L26,18 L26,14 L22,14 L22,18 Z" id="path-1"></path>
    </defs>
    <g id="ic/info_outline" stroke="none" stroke-width="1" fill="none" fill-rule="evenodd">
        <mask id="mask-2" fill="white">
            <use xlink:href="#path-1"></use>
        </mask>
        <use id="Shape" fill="#999999" xlink:href="#path-1"></use>
    </g>
</svg>