<?xml version="1.0" encoding="UTF-8"?>
<svg width="18px" height="18px" viewBox="0 0 18 18" version="1.1" xmlns="http://www.w3.org/2000/svg" xmlns:xlink="http://www.w3.org/1999/xlink">
    <!-- Generator: Sketch 52.6 (67491) - http://www.bohemiancoding.com/sketch -->
    <title>ic/settings</title>
    <desc>Created with Sketch.</desc>
    <defs>
        <path d="M13.4625,9.585 C13.485,9.3975 13.5,9.2025 13.5,9 C13.5,8.7975 13.485,8.6025 13.455,8.415 L14.7225,7.425 C14.835,7.335 14.865,7.17 14.7975,7.0425 L13.5975,4.965 C13.5225,4.83 13.365,4.785 13.23,4.83 L11.7375,5.43 C11.4225,5.19 11.0925,4.995 10.725,4.845 L10.5,3.255 C10.4775,3.105 10.35,3 10.2,3 L7.8,3 C7.65,3 7.53,3.105 7.5075,3.255 L7.2825,4.845 C6.915,4.995 6.5775,5.1975 6.27,5.43 L4.7775,4.83 C4.6425,4.7775 4.485,4.83 4.41,4.965 L3.21,7.0425 C3.135,7.1775 3.165,7.335 3.285,7.425 L4.5525,8.415 C4.5225,8.6025 4.5,8.805 4.5,9 C4.5,9.195 4.515,9.3975 4.545,9.585 L3.2775,10.575 C3.165,10.665 3.135,10.83 3.2025,10.9575 L4.4025,13.035 C4.4775,13.17 4.635,13.215 4.77,13.17 L6.2625,12.57 C6.5775,12.81 6.9075,13.005 7.275,13.155 L7.5,14.745 C7.53,14.895 7.65,15 7.8,15 L10.2,15 C10.35,15 10.4775,14.895 10.4925,14.745 L10.7175,13.155 C11.085,13.005 11.4225,12.8025 11.73,12.57 L13.2225,13.17 C13.3575,13.2225 13.515,13.17 13.59,13.035 L14.79,10.9575 C14.865,10.8225 14.835,10.665 14.715,10.575 L13.4625,9.585 Z M9,11.25 C7.7625,11.25 6.75,10.2375 6.75,9 C6.75,7.7625 7.7625,6.75 9,6.75 C10.2375,6.75 11.25,7.7625 11.25,9 C11.25,10.2375 10.2375,11.25 9,11.25 Z" id="path-1"></path>
    </defs>
    <g id="ic/settings" stroke="none" stroke-width="1" fill="none" fill-rule="evenodd">
        <mask id="mask-2" fill="white">
            <use xlink:href="#path-1"></use>
        </mask>
        <use id="Shape" fill="#999999" xlink:href="#path-1"></use>
    </g>
</svg>