<?xml version="1.0" encoding="UTF-8"?>
<svg width="24px" height="24px" viewBox="0 0 24 24" version="1.1" xmlns="http://www.w3.org/2000/svg" xmlns:xlink="http://www.w3.org/1999/xlink">
    <!-- Generator: Sketch 52.6 (67491) - http://www.bohemiancoding.com/sketch -->
    <title>ic/tag</title>
    <desc>Created with Sketch.</desc>
    <defs>
        <path d="M21.41,11.58 L12.41,2.58 C12.05,2.22 11.55,2 11,2 L4,2 C2.9,2 2,2.9 2,4 L2,11 C2,11.55 2.22,12.05 2.59,12.42 L11.59,21.42 C11.95,21.78 12.45,22 13,22 C13.55,22 14.05,21.78 14.41,21.41 L21.41,14.41 C21.78,14.05 22,13.55 22,13 C22,12.45 21.77,11.94 21.41,11.58 Z M5.5,7 C4.67,7 4,6.33 4,5.5 C4,4.67 4.67,4 5.5,4 C6.33,4 7,4.67 7,5.5 C7,6.33 6.33,7 5.5,7 Z M7,13.8690373 L7.80812204,13.0609153 L13.4649763,18.7177695 L12.6568542,19.5258916 L7,13.8690373 Z M9.42436611,11.4446712 L9.82842712,11.0406102 L15.4852814,16.6974644 L15.0812204,17.1015254 L9.42436611,11.4446712 Z M8.21218305,12.6568542 L9.02030509,11.8487322 L14.6771593,17.5055865 L13.8690373,18.3137085 L8.21218305,12.6568542 Z M10.6365492,10.2324881 L11.4446712,9.42436611 L17.1015254,15.0812204 L16.2934034,15.8893424 L10.6365492,10.2324881 Z M13.4649763,7.40406102 L13.8690373,7 L19.5258916,12.6568542 L19.1218305,13.0609153 L13.4649763,7.40406102 Z M11.8487322,9.02030509 L13.0609153,7.80812204 L18.7177695,13.4649763 L17.5055865,14.6771593 L11.8487322,9.02030509 Z" id="path-1"></path>
    </defs>
    <g id="ic/tag" stroke="none" stroke-width="1" fill="none" fill-rule="evenodd">
        <mask id="mask-2" fill="white">
            <use xlink:href="#path-1"></use>
        </mask>
        <use id="Shape" fill="#999999" xlink:href="#path-1"></use>
    </g>
</svg>